<?xml version="1.0" encoding="UTF-8"?>
<svg width="106px" height="101px" viewBox="0 0 106 101" version="1.1" xmlns="http://www.w3.org/2000/svg" xmlns:xlink="http://www.w3.org/1999/xlink">
    <title>DB26BB04-5CED-45F2-B5EB-569420935E66</title>
    <defs>
        <polygon id="path-1" points="18.339401 65.9259259 36.1321739 65.9259259 36.1321739 0.228148148 0.546628174 0.228148148 0.546628174 65.9259259"></polygon>
    </defs>
    <g id="Final" stroke="none" stroke-width="1" fill="none" fill-rule="evenodd">
        <g id="0.1_Home" transform="translate(-1192.000000, -2023.000000)">
            <g id="Group-19" transform="translate(236.000000, 1444.000000)">
                <g id="Group-16" transform="translate(154.000000, 0.000000)">
                    <g id="Group-12" transform="translate(145.000000, 487.000000)">
                        <g id="Group-43" transform="translate(570.000000, 2.000000)">
                            <g id="Group-11" transform="translate(31.000000, 90.000000)">
                                <g id="Page-1" transform="translate(56.000000, 0.000000)">
                                    <polygon id="Fill-1" fill="#8DC63F" points="17.7925148 90.2340741 86.9170504 90.2340741 86.9170504 7.82592593 17.7925148 7.82592593"></polygon>
                                    <polygon id="Fill-2" fill="#FFFFFF" points="25.2726122 16.3414815 29.2493635 16.3414815 29.2493635 14.8311111 25.2726122 14.8311111"></polygon>
                                    <polygon id="Fill-3" fill="#FFFFFF" points="30.2787617 16.3414815 44.6586296 16.3414815 44.6586296 14.8311111 30.2787617 14.8311111"></polygon>
                                    <polygon id="Fill-4" fill="#FFFFFF" points="29.2486261 28.2466667 35.5865043 28.2466667 35.5865043 26.737037 29.2486261 26.737037"></polygon>
                                    <polygon id="Fill-5" fill="#FFFFFF" points="25.2718748 51.7696296 35.5865043 51.7696296 35.5865043 50.2562963 25.2718748 50.2562963"></polygon>
                                    <polygon id="Fill-6" fill="#FFFFFF" points="29.2486261 32.2222222 31.8589913 32.2222222 31.8589913 30.7118519 29.2486261 30.7118519"></polygon>
                                    <polygon id="Fill-7" fill="#FFFFFF" points="37.0789843 28.2466667 53.62752 28.2466667 53.62752 26.737037 37.0789843 26.737037"></polygon>
                                    <polygon id="Fill-8" fill="#FFFFFF" points="36.0200904 40.1577778 52.0657252 40.1577778 52.0657252 38.6459259 36.0200904 38.6459259"></polygon>
                                    <polygon id="Fill-9" fill="#FFFFFF" points="32.61408 83.2266667 38.3738435 83.2266667 38.3738435 81.7177778 32.61408 81.7177778"></polygon>
                                    <polygon id="Fill-10" fill="#FFFFFF" points="54.0102261 55.7392593 59.9491757 55.7392593 59.9491757 54.2259259 54.0102261 54.2259259"></polygon>
                                    <polygon id="Fill-11" fill="#FFFFFF" points="37.2522713 75.2933333 48.4399722 75.2933333 48.4399722 73.7777778 37.2522713 73.7777778"></polygon>
                                    <polygon id="Fill-12" fill="#FFFFFF" points="40.877287 83.2266667 54.0124383 83.2266667 54.0124383 81.7177778 40.877287 81.7177778"></polygon>
                                    <polygon id="Fill-13" fill="#FFFFFF" points="64.4974052 63.6755556 69.2734887 63.6755556 69.2734887 62.1622222 64.4974052 62.1622222"></polygon>
                                    <polygon id="Fill-14" fill="#FFFFFF" points="54.9717843 40.1577778 66.8813913 40.1577778 66.8813913 38.6459259 54.9717843 38.6459259"></polygon>
                                    <polygon id="Fill-15" fill="#FFFFFF" points="55.5019687 28.2466667 67.4130504 28.2466667 67.4130504 26.737037 55.5019687 26.737037"></polygon>
                                    <polygon id="Fill-16" fill="#FFFFFF" points="69.8361183 28.2466667 77.1252313 28.2466667 77.1252313 26.737037 69.8361183 26.737037"></polygon>
                                    <polygon id="Fill-17" fill="#FFFFFF" points="29.2493635 20.3111111 38.7034574 20.3111111 38.7034574 18.8 29.2493635 18.8"></polygon>
                                    <polygon id="Fill-18" fill="#FFFFFF" points="29.2486261 24.282963 42.650713 24.282963 42.650713 22.7696296 29.2486261 22.7696296"></polygon>
                                    <polygon id="Fill-19" fill="#FFFFFF" points="32.8271861 32.2222222 48.1899965 32.2222222 48.1899965 30.7118519 32.8271861 30.7118519"></polygon>
                                    <polygon id="Fill-20" fill="#FFFFFF" points="29.2493635 59.7051852 44.6062748 59.7051852 44.6062748 58.1992593 29.2493635 58.1992593"></polygon>
                                    <polygon id="Fill-21" fill="#FFFFFF" points="29.2493635 63.6755556 46.1201391 63.6755556 46.1201391 62.1622222 29.2493635 62.1622222"></polygon>
                                    <polygon id="Fill-22" fill="#FFFFFF" points="43.6189078 79.2637037 73.4758817 79.2637037 73.4758817 77.7488889 43.6189078 77.7488889"></polygon>
                                    <polygon id="Fill-23" fill="#FFFFFF" points="58.0127861 83.2266667 64.5519722 83.2266667 64.5519722 81.7177778 58.0127861 81.7177778"></polygon>
                                    <polygon id="Fill-24" fill="#FFFFFF" points="47.9282226 63.6755556 62.5610157 63.6755556 62.5610157 62.1622222 47.9282226 62.1622222"></polygon>
                                    <polygon id="Fill-25" fill="#FFFFFF" points="52.6888209 75.2933333 67.3186643 75.2933333 67.3186643 73.7777778 52.6888209 73.7777778"></polygon>
                                    <polygon id="Fill-26" fill="#FFFFFF" points="32.8271861 36.1925926 37.8222748 36.1925926 37.8222748 34.682963 32.8271861 34.682963"></polygon>
                                    <polygon id="Fill-27" fill="#FFFFFF" points="32.8271861 44.1244444 38.2602852 44.1244444 38.2602852 42.6133333 32.8271861 42.6133333"></polygon>
                                    <polygon id="Fill-28" fill="#FFFFFF" points="29.2493635 55.7392593 52.0657252 55.7392593 52.0657252 54.2259259 29.2493635 54.2259259"></polygon>
                                    <polygon id="Fill-29" fill="#FFFFFF" points="25.2726122 75.2933333 35.4987548 75.2933333 35.4987548 73.7777778 25.2726122 73.7777778"></polygon>
                                    <polygon id="Fill-30" fill="#FFFFFF" points="29.2486261 79.2637037 40.9016209 79.2637037 40.9016209 77.7474074 29.2486261 77.7474074"></polygon>
                                    <polygon id="Fill-31" fill="#FFFFFF" points="39.3921809 36.1925926 69.3811478 36.1925926 69.3811478 34.682963 39.3921809 34.682963"></polygon>
                                    <polygon id="Fill-32" fill="#FFFFFF" points="32.4378435 67.6451852 42.0320417 67.6451852 42.0320417 66.1222222 32.4378435 66.1222222"></polygon>
                                    <polygon id="Fill-33" fill="#FFFFFF" points="45.3185948 67.6451852 71.8307617 67.6451852 71.8307617 66.1222222 45.3185948 66.1222222"></polygon>
                                    <polygon id="Fill-34" fill="#FFFFFF" points="51.35488 32.2222222 61.4578783 32.2222222 61.4578783 30.7118519 51.35488 30.7118519"></polygon>
                                    <polygon id="Fill-35" fill="#FFFFFF" points="44.082727 24.282963 57.4826017 24.282963 57.4826017 22.7696296 44.082727 22.7696296"></polygon>
                                    <polygon id="Fill-36" fill="#FFFFFF" points="58.4050783 24.282963 69.4187548 24.282963 69.4187548 22.7696296 58.4050783 22.7696296"></polygon>
                                    <polygon id="Fill-37" fill="#FFFFFF" points="73.4758817 24.282963 79.4435896 24.282963 79.4435896 22.7696296 73.4758817 22.7696296"></polygon>
                                    <polygon id="Fill-38" fill="#FFFFFF" points="41.7901774 20.3111111 56.303513 20.3111111 56.303513 18.8 41.7901774 18.8"></polygon>
                                    <polygon id="Fill-39" fill="#353F49" points="17.7925148 7.82592593 86.916313 7.82592593 86.916313 0.000740740741 17.7925148 0.000740740741"></polygon>
                                    <g id="Group-70" transform="translate(0.000000, 33.091852)">
                                        <g id="Group-42" transform="translate(68.577391, 0.000000)">
                                            <mask id="mask-2" fill="white">
                                                <use xlink:href="#path-1"></use>
                                            </mask>
                                            <g id="Clip-41"></g>
                                            <path d="M5.10591861,65.9259259 C2.59952557,65.9259259 0.546628174,63.8688889 0.546628174,61.3503704 L0.546628174,4.81037037 C0.546628174,2.29481481 2.59952557,0.228148148 5.10591861,0.228148148 L31.5760543,0.228148148 C34.0868717,0.228148148 36.1323951,2.29481481 36.1323951,4.81037037 L36.1323951,61.3503704 C36.1323951,63.8688889 34.0868717,65.9259259 31.5760543,65.9259259 L5.10591861,65.9259259 Z" id="Fill-40" fill="#353F49" mask="url(#mask-2)"></path>
                                        </g>
                                        <path d="M90.8662233,61.1935556 C90.8662233,61.798 90.3802824,62.2883704 89.7800459,62.2883704 L84.060839,62.2883704 C83.4642894,62.2883704 82.971712,61.798 82.971712,61.1935556 L82.971712,60.735037 C82.971712,60.1342963 83.4642894,59.6365185 84.060839,59.6365185 L89.7800459,59.6365185 C90.3802824,59.6365185 90.8662233,60.1342963 90.8662233,60.735037 L90.8662233,61.1935556 Z" id="Fill-43" fill="#474F59"></path>
                                        <path d="M91.6881934,5.29155556 C91.6881934,5.53896296 91.4920473,5.736 91.2457586,5.736 L82.5961586,5.736 C82.3476577,5.736 82.1492995,5.53896296 82.1492995,5.29155556 L82.1492995,5.10414815 C82.1492995,4.86118519 82.3476577,4.65896296 82.5961586,4.65896296 L91.2457586,4.65896296 C91.4920473,4.65896296 91.6881934,4.86118519 91.6881934,5.10414815 L91.6881934,5.29155556 Z" id="Fill-45" fill="#474F59"></path>
                                        <polygon id="Fill-47" fill="#FFFFFF" points="71.7090922 56.0022222 102.130908 56.0022222 102.130908 10.1644444 71.7090922 10.1644444"></polygon>
                                        <polygon id="Fill-49" fill="#D9D8D7" points="78.0506574 34.3503704 95.7841809 34.3503704 95.7841809 16.5392593 78.0506574 16.5392593"></polygon>
                                        <path d="M90.3095666,23.3319259 C90.3095666,25.548963 88.787591,27.343037 86.9197788,27.343037 C85.0475423,27.343037 83.5322031,25.548963 83.5322031,23.3319259 C83.5322031,21.1156296 85.0475423,19.3185926 86.9197788,19.3185926 C88.787591,19.3185926 90.3095666,21.1156296 90.3095666,23.3319259" id="Fill-50" fill="#FFFFFF"></path>
                                        <path d="M88.7249864,28.2834074 C88.168256,28.5463704 87.5584334,28.6937778 86.9198525,28.6937778 C86.2827464,28.6937778 85.6670247,28.5463704 85.1095569,28.2834074 C82.6665795,28.7167407 80.8422734,30.0085926 80.6328543,31.5656296 L93.2024264,31.5656296 C92.9989064,30.0085926 91.170176,28.7167407 88.7249864,28.2834074" id="Fill-51" fill="#FFFFFF"></path>
                                        <polygon id="Fill-52" fill="#D9D8D7" points="78.0506574 42.662963 91.6452035 42.662963 91.6452035 38.5051852 78.0506574 38.5051852"></polygon>
                                        <polygon id="Fill-53" fill="#353F49" points="91.6452035 42.6622222 95.7841809 42.6622222 95.7841809 38.5044444 91.6452035 38.5044444"></polygon>
                                        <polygon id="Fill-54" fill="#353F49" points="91.6452035 49.8118519 95.7841809 49.8118519 95.7841809 45.6548148 91.6452035 45.6548148"></polygon>
                                        <polygon id="Fill-55" fill="#D9D8D7" points="78.0506574 49.8088889 91.6452035 49.8088889 91.6452035 45.6548148 78.0506574 45.6548148"></polygon>
                                        <polygon id="Fill-56" fill="#474F59" points="19.149536 30.1685926 16.4469969 30.1685926 15.659463 34.1152593 19.9370699 34.1152593"></polygon>
                                        <polygon id="Fill-57" fill="#474F59" points="10.067456 31.8865926 7.72918817 33.2443704 9.01003687 37.0562222 12.713216 34.9102963"></polygon>
                                        <polygon id="Fill-58" fill="#474F59" points="3.06046887 37.9333333 1.70735583 40.282963 4.7203367 42.9422222 6.86098365 39.2237037"></polygon>
                                        <polygon id="Fill-59" fill="#474F59" points="0 46.692 0 49.4053333 3.93029565 50.1979259 3.93029565 45.9008889"></polygon>
                                        <polygon id="Fill-60" fill="#474F59" points="1.70735583 55.8145185 3.06046887 58.1634074 6.86098365 56.8745185 4.7203367 53.1515556"></polygon>
                                        <polygon id="Fill-61" fill="#474F59" points="7.72896696 62.8515556 10.0672348 64.2085926 12.7129948 61.1848889 9.00981565 59.0397037"></polygon>
                                        <polygon id="Fill-62" fill="#474F59" points="16.4501677 65.9259259 19.1497572 65.9259259 19.9372911 61.9844444 15.6626337 61.9844444"></polygon>
                                        <polygon id="Fill-63" fill="#474F59" points="25.5275283 64.2086667 27.8687457 62.8516296 26.5842101 59.0397778 22.8802936 61.184963"></polygon>
                                        <polygon id="Fill-64" fill="#474F59" points="32.5398984 58.1633333 33.8856376 55.8144444 30.877081 53.1514815 28.7364341 56.8744444"></polygon>
                                        <polygon id="Fill-65" fill="#474F59" points="35.5946157 49.4054074 35.5946157 46.6920741 31.6716939 45.900963 31.6716939 50.198"></polygon>
                                        <polygon id="Fill-66" fill="#474F59" points="33.8854163 40.2828889 32.5396772 37.9332593 28.7369503 39.2236296 30.8768598 42.9391852"></polygon>
                                        <polygon id="Fill-67" fill="#474F59" points="27.8685983 33.2443704 25.5273809 31.8888148 22.8801461 34.9102963 26.5840626 37.0562222"></polygon>
                                        <path d="M17.8025433,51.9495556 C15.653785,51.9495556 13.9150163,50.2014074 13.9150163,48.0480741 C13.9150163,45.8947407 15.653785,44.1458519 17.8025433,44.1458519 C19.9387659,44.1458519 21.6812216,45.8947407 21.6812216,48.0480741 C21.6812216,50.2014074 19.9387659,51.9495556 17.8025433,51.9495556 M17.8025433,33.9547407 C10.0444494,33.9547407 3.76482504,40.2643704 3.76482504,48.0480741 C3.76482504,55.831037 10.0444494,62.1399259 17.8025433,62.1399259 C25.5503137,62.1399259 31.8306755,55.831037 31.8306755,48.0480741 C31.8306755,40.2643704 25.5503137,33.9547407 17.8025433,33.9547407" id="Fill-68" fill="#353F49"></path>
                                        <path d="M17.8025433,51.4322963 C15.942105,51.4322963 14.4319277,49.9182222 14.4319277,48.0485926 C14.4319277,46.1811852 15.942105,44.6693333 17.8025433,44.6693333 C19.6533955,44.6693333 21.1643103,46.1811852 21.1643103,48.0485926 C21.1643103,49.9182222 19.6533955,51.4322963 17.8025433,51.4322963 M17.8025433,41.2819259 C14.0757677,41.2819259 11.0642616,44.3056296 11.0642616,48.0485926 C11.0642616,51.7878519 14.0757677,54.8115556 17.8025433,54.8115556 C21.5197329,54.8115556 24.5319763,51.7878519 24.5319763,48.0485926 C24.5319763,44.3056296 21.5197329,41.2819259 17.8025433,41.2819259" id="Fill-69" fill="#E6E5E5"></path>
                                    </g>
                                </g>
                            </g>
                        </g>
                    </g>
                </g>
            </g>
        </g>
    </g>
</svg>