<?xml version="1.0" encoding="UTF-8"?>
<svg width="126px" height="100px" viewBox="0 0 126 100" version="1.1" xmlns="http://www.w3.org/2000/svg" xmlns:xlink="http://www.w3.org/1999/xlink">
    <title>53CA8218-9D70-40CD-A5B8-F9F4D3FBEDFC</title>
    <defs>
        <polygon id="path-1" points="35.72424 69.6 0.08424 69.6 0.08424 0.29536 35.72424 0.29536 35.72424 69.6"></polygon>
        <polygon id="path-3" points="0 36.5320227 0 0.611315646 36.7253805 0.611315646 36.7253805 36.5320227"></polygon>
    </defs>
    <g id="Final" stroke="none" stroke-width="1" fill="none" fill-rule="evenodd">
        <g id="0.1_Home" transform="translate(-1042.000000, -1703.000000)">
            <g id="Group-19" transform="translate(236.000000, 1444.000000)">
                <g id="Group-16" transform="translate(154.000000, 0.000000)">
                    <g id="Group-43" transform="translate(575.000000, 169.000000)">
                        <g id="Group-11" transform="translate(31.000000, 90.000000)">
                            <g id="Page-1" transform="translate(46.000000, 0.000000)">
                                <polygon id="Fill-1" fill="#F2F2F2" points="18.3624 81.0064 97.144 81.0064 97.144 6.5688 18.3624 6.5688"></polygon>
                                <polygon id="Fill-2" fill="#353F49" points="18.3632 6.5688 97.144 6.5688 97.144 0 18.3632 0"></polygon>
                                <polygon id="Fill-3" fill="#57646D" points="18.3624 81.0064 24.1624 81.0064 24.1624 6.5688 18.3624 6.5688"></polygon>
                                <polygon id="Fill-4" fill="#919191" points="29.8888 43.508 90.8888 43.508 90.8888 17.8504 29.8888 17.8504"></polygon>
                                <polygon id="Fill-5" fill="#353F49" points="29.888 13.244 42.3688 13.244 42.3688 11.1752 29.888 11.1752"></polygon>
                                <polygon id="Fill-6" fill="#353F49" points="46.0592 13.244 58.5416 13.244 58.5416 11.1752 46.0592 11.1752"></polygon>
                                <polygon id="Fill-7" fill="#353F49" points="62.2344 13.244 74.7144 13.244 74.7144 11.1752 62.2344 11.1752"></polygon>
                                <polygon id="Fill-8" fill="#353F49" points="78.4072 13.244 90.8888 13.244 90.8888 11.1752 78.4072 11.1752"></polygon>
                                <polygon id="Fill-9" fill="#CCCBCA" points="29.8888 63.6704 45.4448 63.6704 45.4448 48.1144 29.8888 48.1144"></polygon>
                                <polygon id="Fill-10" fill="#CCCBCA" points="29.8888 67.048 45.4448 67.048 45.4448 65.9384 29.8888 65.9384"></polygon>
                                <polygon id="Fill-11" fill="#CCCBCA" points="29.8888 69.2704 45.4448 69.2704 45.4448 68.1576 29.8888 68.1576"></polygon>
                                <polygon id="Fill-12" fill="#CCCBCA" points="29.888 71.4952 37.668 71.4952 37.668 70.3824 29.888 70.3824"></polygon>
                                <polygon id="Fill-13" fill="#CCCBCA" points="52.6088 63.6704 68.168 63.6704 68.168 48.1144 52.6088 48.1144"></polygon>
                                <polygon id="Fill-14" fill="#CCCBCA" points="52.6088 67.048 68.1696 67.048 68.1696 65.9384 52.6088 65.9384"></polygon>
                                <polygon id="Fill-15" fill="#CCCBCA" points="52.6088 69.2704 68.1696 69.2704 68.1696 68.1576 52.6088 68.1576"></polygon>
                                <polygon id="Fill-16" fill="#CCCBCA" points="52.608 71.4952 60.3912 71.4952 60.3912 70.3824 52.608 70.3824"></polygon>
                                <polygon id="Fill-17" fill="#8DC63F" points="75.3296 63.6704 90.8888 63.6704 90.8888 48.1144 75.3296 48.1144"></polygon>
                                <polygon id="Fill-18" fill="#CCCBCA" points="75.3344 67.048 90.8928 67.048 90.8928 65.9384 75.3344 65.9384"></polygon>
                                <polygon id="Fill-19" fill="#CCCBCA" points="75.3344 69.2704 90.8928 69.2704 90.8928 68.1576 75.3344 68.1576"></polygon>
                                <polygon id="Fill-20" fill="#CCCBCA" points="75.3344 71.4952 83.1128 71.4952 83.1128 70.3824 75.3344 70.3824"></polygon>
                                <polygon id="Fill-21" fill="#353F49" points="87.7892 67.49216 83.1068 55.89216 94.7068 60.57056 90.194 62.97216"></polygon>
                                <polygon id="Fill-22" fill="#353F49" points="90.3884 61.8656 89.0844 63.172 92.9484 67.0328 94.2516 65.7264"></polygon>
                                <polygon id="Fill-23" fill="#FFFFFF" points="80.82672 53.93744 79.33312 52.44384 79.66432 52.11744 81.15712 53.60944"></polygon>
                                <polygon id="Fill-24" fill="#FFFFFF" points="80.2548 54.95776 78.3044 54.14816 78.4772 53.72176 80.4308 54.52976"></polygon>
                                <polygon id="Fill-25" fill="#FFFFFF" points="78.00192 55.65768 78.00192 56.12248 80.11552 56.12328 80.11552 55.65768"></polygon>
                                <polygon id="Fill-26" fill="#FFFFFF" points="78.48064 58.05928 78.30704 57.62968 80.25664 56.81688 80.43104 57.24648"></polygon>
                                <polygon id="Fill-27" fill="#FFFFFF" points="79.66416 59.664 79.33296 59.3344 80.82656 57.8392 81.15696 58.1704"></polygon>
                                <polygon id="Fill-28" fill="#FFFFFF" points="81.36808 60.69216 80.93928 60.51696 81.74728 58.56416 82.17768 58.73936"></polygon>
                                <polygon id="Fill-29" fill="#FFFFFF" points="82.872 58.87968 82.8736 60.99248 83.3416 60.99248 83.34 58.87968"></polygon>
                                <polygon id="Fill-30" fill="#FFFFFF" points="86.0968 56.1224 88.2104 56.1224 88.2104 55.6576 86.0968 55.6576"></polygon>
                                <polygon id="Fill-31" fill="#FFFFFF" points="85.96104 54.95776 85.78424 54.52976 87.73864 53.72176 87.91224 54.14816"></polygon>
                                <polygon id="Fill-32" fill="#FFFFFF" points="85.38608 53.93744 85.05648 53.60944 86.55328 52.11744 86.88048 52.44224"></polygon>
                                <polygon id="Fill-33" fill="#FFFFFF" points="84.46888 53.2156 84.04008 53.034 84.84888 51.086 85.27528 51.2628"></polygon>
                                <polygon id="Fill-34" fill="#FFFFFF" points="82.872 52.8952 83.34 52.8952 83.34 50.7864 82.872 50.7864"></polygon>
                                <polygon id="Fill-35" fill="#FFFFFF" points="81.74624 53.2156 80.93904 51.2628 81.36784 51.086 82.17744 53.034"></polygon>
                                <g id="Group-74" transform="translate(0.000000, 20.962400)">
                                    <path d="M125.82048,63.55632 C125.82048,66.91232 123.07488,69.65152 119.72288,69.65152 L115.29088,69.65152 C111.93328,69.65152 109.19168,66.91232 109.19168,63.55632 L109.19168,46.11392 C109.19168,42.76112 111.93328,40.01872 115.29088,40.01872 L119.72288,40.01872 C123.07488,40.01872 125.82048,42.76112 125.82048,46.11392 L125.82048,63.55632 Z" id="Fill-36" fill="#F2F2F2"></path>
                                    <path d="M123.01032,40.99536 C123.07032,41.33936 123.10872,41.69056 123.10872,42.05136 L123.10872,55.28096 C123.10872,57.92496 122.09992,60.55776 120.09032,62.57056 C118.07352,64.58736 115.43672,65.59056 112.79672,65.59056 L112.57912,65.59056 C111.37032,65.59056 110.23992,65.23136 109.29592,64.61536 C109.79352,67.46896 112.29752,69.65136 115.29112,69.65136 L119.72312,69.65136 C123.07512,69.65136 125.82072,66.91216 125.82072,63.55616 L125.82072,46.11376 C125.82072,43.96896 124.69512,42.08096 123.01032,40.99536" id="Fill-38" fill="#D9D8D7"></path>
                                    <path d="M118.89072,46.39064 C118.89072,47.15784 118.27472,47.77624 117.50512,47.77624 C116.73632,47.77624 116.12352,47.15784 116.12352,46.39064 C116.12352,45.62504 116.73632,45.00344 117.50512,45.00344 C118.27472,45.00344 118.89072,45.62504 118.89072,46.39064" id="Fill-40" fill="#353F49"></path>
                                    <g id="Group-44" transform="translate(82.400000, 8.800000)">
                                        <mask id="mask-2" fill="white">
                                            <use xlink:href="#path-1"></use>
                                        </mask>
                                        <g id="Clip-43"></g>
                                        <path d="M27.96344,0.29536 C23.68104,0.29536 20.19784,3.77856 20.19784,8.05776 C20.19784,8.05776 20.20024,56.74656 20.20024,58.92176 C20.20024,64.12656 15.96584,68.35936 10.76344,68.35936 C5.56104,68.35936 1.32824,64.12656 1.32744,58.92176 L1.32424,51.24576 L0.08424,51.24656 L0.08744,58.92176 C0.08824,64.80976 4.87784,69.60016 10.76344,69.60016 C16.64984,69.60016 21.43944,64.80976 21.43944,58.92176 C21.43944,58.92176 21.43864,41.70176 21.43864,8.05776 C21.43864,4.46096 24.36504,1.53456 27.96344,1.53456 C31.55944,1.53456 34.48504,4.46256 34.48504,8.06096 L34.48184,31.21856 L35.72184,31.21856 L35.72424,8.06096 C35.72424,3.77936 32.24344,0.29536 27.96344,0.29536" id="Fill-42" fill="#D9D8D7" mask="url(#mask-2)"></path>
                                    </g>
                                    <g id="Group-3">
                                        <g id="Group-47">
                                            <mask id="mask-4" fill="white">
                                                <use xlink:href="#path-3"></use>
                                            </mask>
                                            <g id="Clip-46"></g>
                                            <path d="M36.51184,15.73048 C34.97904,5.93768 25.61104,-0.72872 15.58784,0.84008 C5.56384,2.40888 -1.31936,11.61848 0.21344,21.41208 C1.74624,31.20488 11.11424,37.87208 21.13744,36.30328 C31.16144,34.73448 38.04464,25.52328 36.51184,15.73048" id="Fill-45" fill="#F2F2F2" mask="url(#mask-4)"></path>
                                        </g>
                                        <g id="Group-2" fill="#8DC63F">
                                            <path d="M3.82592,21.586 C3.82512,21.5844 3.82432,21.5828 3.82272,21.5812 C3.79712,21.5932 3.77152,21.6044 3.74432,21.6164 C3.77072,21.606 3.79792,21.5964 3.82592,21.586" id="Fill-48"></path>
                                            <path d="M29.2892,4.06488 C28.918,3.79928 28.538,3.54648 28.1476,3.30888 C28.474,3.71608 28.85,4.09288 29.25,4.45448 C29.2988,4.31688 29.306,4.18808 29.2892,4.06488" id="Fill-50"></path>
                                            <path d="M3.74464,21.61648 C3.68864,21.63728 3.64304,21.65568 3.63504,21.66528 C3.67264,21.65008 3.70704,21.63248 3.74464,21.61648" id="Fill-52"></path>
                                            <path d="M6.88528,32.12032 C7.24608,31.68672 6.43888,31.65792 6.65488,31.33232 C6.07888,30.94512 5.92128,30.44592 6.10608,29.76272 C6.17968,29.49152 6.03648,29.18512 5.76368,28.91392 C5.37088,28.52592 5.10928,27.99952 4.82128,27.51312 C4.69008,27.29312 4.51328,27.00512 4.55968,26.79232 C4.72368,26.02912 4.84848,25.21232 5.22448,24.54992 C5.72688,23.66752 5.70608,22.86032 5.31968,21.66672 C5.11088,22.32832 4.73648,22.17072 4.40928,22.22512 C3.99168,22.29312 3.99488,22.31232 3.63568,21.66512 C3.07808,21.16032 2.59408,20.64112 2.12608,20.10832 C2.04448,20.01552 2.01088,19.86672 1.98928,19.73712 C1.88928,19.14992 1.80128,18.56032 1.84688,17.95072 C2.50528,19.16112 3.16448,20.37072 3.82288,21.58112 C4.74528,21.16832 5.46128,20.54352 6.25968,20.05552 C6.81568,19.71472 7.03648,19.23072 7.22928,18.68512 C7.30048,18.48112 7.33408,18.26432 7.38208,18.06192 C7.01408,17.73392 6.61408,17.37552 6.23168,17.03472 C6.19488,17.15552 6.13648,17.35152 6.08608,17.52272 C5.58688,17.25872 5.09968,17.02112 4.63408,16.74672 C4.20368,16.49392 4.14128,16.16352 4.52208,15.63232 C5.04528,16.46992 5.66368,16.90512 6.57248,16.69232 C6.63328,16.67792 6.71568,16.82512 6.80048,16.84432 C7.27968,16.95472 7.75008,17.10672 8.25888,16.93952 C8.55648,16.84272 8.88208,16.83392 8.95008,16.82272 C9.72448,17.49792 10.21728,18.15472 11.16688,17.97952 C11.25408,18.53712 11.20528,19.06912 11.42288,19.44752 C11.91328,20.30352 12.53488,21.08512 13.16048,21.97792 C13.43728,21.64352 13.69248,21.33712 13.93408,21.04432 C13.85328,20.53312 13.78128,20.07232 13.72848,19.73472 C14.08128,19.28512 14.60768,18.91632 14.61328,18.53952 C14.62288,17.91312 15.51488,18.01472 15.39008,17.37872 C15.38368,17.34672 15.95888,17.21952 16.24848,17.10192 C16.38208,17.04752 16.48048,16.90752 16.67408,16.73712 C17.16128,17.47312 17.61248,18.15552 18.06128,18.83392 C18.32128,18.68272 18.57008,18.53792 18.80768,18.40032 C19.18128,18.88752 18.85248,19.53312 19.38928,19.84992 C18.96848,20.91552 19.65888,21.47952 20.35088,22.07392 C20.47808,22.18352 20.43248,22.49472 20.47488,22.76912 C19.81408,22.54512 19.43968,21.74192 18.54688,22.34752 C19.29488,22.25392 19.47328,22.81792 19.75248,23.13552 C20.03088,23.45152 20.63168,23.67712 20.49488,24.39072 C21.07328,24.15952 21.41248,25.25952 22.13808,24.69152 C22.21968,24.35552 22.29728,24.03472 22.37488,23.70992 C22.19968,23.67472 22.11408,23.64752 22.02848,23.64192 C21.41168,23.60032 20.73968,23.21872 20.90048,22.99952 C21.02048,22.94672 21.14128,22.89392 21.30128,22.82512 C21.25328,22.52352 21.20448,22.21152 21.15248,21.87712 C19.71888,20.82192 19.54208,20.42992 20.08128,19.35952 C20.36208,19.58912 20.66288,19.78592 20.89728,20.04272 C21.11568,20.28432 21.26528,20.58912 21.42448,20.83552 C21.81728,20.40752 22.17888,20.01392 22.53568,19.62432 C22.46688,19.18192 22.39488,18.72272 22.28288,18.00512 C22.07568,17.87632 21.72448,17.65792 21.30928,17.39872 C21.39648,17.04272 21.49648,16.63712 21.62768,16.10112 C21.95408,16.31072 22.15968,16.44272 22.24848,16.50032 C22.24608,16.83152 22.24448,17.03312 22.24288,17.23392 C22.40128,17.23072 22.55888,17.22752 22.72448,17.22432 C22.68208,16.80592 22.65008,16.49072 22.61968,16.18912 C24.13648,15.60192 24.53088,15.13952 25.25568,13.13712 C24.82448,12.38752 24.39568,11.64192 23.96848,10.90032 C24.23888,10.74352 24.38928,10.65712 24.52928,10.57712 C24.35488,9.89872 23.56768,10.75312 23.43568,10.24672 C23.62688,9.87952 23.77488,9.59472 23.95088,9.25552 C24.08128,9.49072 24.16608,9.64272 24.25408,9.80352 C24.42128,9.68832 24.58768,9.57232 24.74448,9.46512 C25.00928,9.69152 25.24768,9.89632 25.64848,10.23872 C25.68928,10.43792 25.77968,10.87632 25.92208,11.56832 C26.24208,11.13872 26.49808,10.92992 26.57168,10.66992 C26.74208,10.07472 26.00048,10.02112 25.88608,9.73472 C25.94288,9.11872 25.98768,8.64112 26.03168,8.16592 C26.87088,7.88512 26.87888,7.86272 26.90768,7.21392 C26.94608,6.37712 27.00528,5.54112 27.05728,4.68832 C26.50208,4.10352 25.71088,4.22352 24.95328,4.20752 C25.03648,3.84672 25.12688,3.59552 25.14608,3.33792 C25.16608,3.08192 25.11408,2.82192 25.09088,2.51392 C25.52208,2.44672 25.90208,2.38672 26.30288,2.32432 C23.08528,0.83392 19.38368,0.24512 15.58768,0.83952 C8.16048,2.00272 2.45888,7.36032 0.62608,14.04112 C0.98288,13.93792 1.27248,13.85472 1.57328,13.76832 C1.84528,14.32912 1.50928,14.77632 1.33488,15.27632 C1.16848,15.75152 0.77648,15.68192 0.47888,15.71392 C0.40768,15.72112 0.32928,15.73632 0.24848,15.74672 C-0.06272,17.57712 -0.08832,19.48272 0.21328,21.41152 C0.99008,26.37152 3.77648,30.52912 7.64048,33.22192 C7.57328,33.10992 7.50528,33.00032 7.43408,32.89312 C7.24928,32.61872 6.83408,32.18112 6.88528,32.12032" id="Fill-54"></path>
                                            <path d="M31.36184,26.46256 C31.86584,25.73616 30.91304,25.40576 30.99144,24.80096 C30.76824,25.35936 30.63224,25.90736 30.48264,26.45056 C30.46744,26.50816 30.37624,26.54416 30.39944,26.52496 C30.08344,26.34816 29.80024,26.18976 29.50824,26.02656 C29.58424,25.77456 29.64344,25.58096 29.70424,25.38016 C29.50904,25.26016 29.32264,25.14576 28.98824,24.93936 C28.96584,25.65136 28.09784,25.59536 28.14344,26.27936 C28.14424,26.29856 28.02504,26.33936 27.96024,26.34576 C27.23064,26.42976 27.34184,26.58736 26.82584,26.94736 C26.21864,27.37216 26.08824,28.33456 25.09464,28.35136 C24.75224,28.35696 24.34504,28.81616 24.10744,29.16496 C23.94504,29.40176 23.87464,29.95216 24.02504,30.10816 C24.55544,30.65376 24.17944,31.20576 24.10904,31.98016 C25.22824,31.49696 26.24024,31.15456 27.14504,30.56336 C27.47464,30.78976 27.80104,31.01456 28.15384,31.25776 C28.05944,31.44736 27.98344,31.59936 27.87224,31.82336 C28.72024,31.81216 29.38264,31.68656 29.83464,31.08496 C30.39864,30.33376 30.99864,29.60176 31.47864,28.79936 C31.81144,28.24256 32.13864,27.59056 31.51944,26.95216 C31.40824,26.83776 31.30024,26.55136 31.36184,26.46256" id="Fill-56"></path>
                                            <path d="M24.96264,24.10472 C25.03064,23.71032 25.04584,23.44632 25.12584,23.20472 C25.20984,22.95512 25.33224,22.71032 25.48184,22.49352 C25.64744,22.25432 25.07384,22.20472 25.38344,21.86952 C25.53704,21.70312 25.45064,21.19352 25.51224,21.07672 C25.54344,21.01912 25.54184,20.94392 25.55624,20.86552 C25.35704,20.75272 25.16904,20.64392 24.93944,20.51272 C24.64824,20.91112 24.38664,21.23432 24.16584,21.58312 C23.94664,21.92712 23.35384,21.98472 23.50904,22.61192 C22.82904,22.07512 22.93624,22.71192 22.76424,22.91672 C23.22984,23.52152 23.34824,23.58552 24.96264,24.10472" id="Fill-58"></path>
                                            <path d="M32.22512,23.03752 C31.80032,22.25512 30.93952,22.07112 30.12112,22.55912 C30.00912,22.62632 29.89312,22.68472 29.72592,22.77512 C29.62512,22.48792 29.53952,22.24312 29.45312,21.99752 C29.17312,21.93112 28.91712,21.87032 28.65472,21.80712 C28.69792,22.08392 28.73232,22.30072 28.76432,22.50552 C28.97232,22.54232 29.14112,22.57272 29.33072,22.60632 C29.23712,22.74632 29.16272,22.85672 29.00592,23.09112 C29.70992,22.90072 30.23712,23.10792 30.57072,23.63432 C30.99472,24.30552 30.96832,24.31752 31.60352,23.92472 C31.70832,23.86072 31.84192,23.84312 31.84032,23.84392 C32.12672,24.04872 32.33072,24.19352 32.53392,24.33992 C32.58672,24.26392 32.64032,24.18872 32.69312,24.11352 C32.53952,23.75432 32.41072,23.37992 32.22512,23.03752" id="Fill-60"></path>
                                            <path d="M29.32672,10.06328 C28.54832,9.54648 29.24672,8.41768 28.51472,7.93048 C28.81792,7.59768 29.12912,7.25688 29.44032,6.91608 C28.96992,7.12008 28.52352,6.95768 28.11392,6.94888 C28.06752,7.35208 28.02752,7.68888 27.98592,8.04248 C28.18192,8.31128 28.41312,8.62728 28.68992,9.00808 C28.01472,9.79368 27.35472,10.56168 26.73792,11.28008 C26.94032,11.56008 27.07712,11.74968 27.17632,11.88728 C27.91872,11.25768 28.62432,10.65928 29.32672,10.06328" id="Fill-62"></path>
                                            <path d="M7.86808,28.66648 C7.59448,29.10728 7.36008,29.48408 7.12408,29.86328 C7.30328,30.18808 7.54328,30.58888 7.74888,31.00728 C8.05928,31.63768 8.53848,31.94328 9.29768,31.94888 C9.01688,31.37688 8.74648,30.94648 8.67128,30.36728 C8.59688,29.79768 8.17128,29.27368 7.86808,28.66648" id="Fill-64"></path>
                                            <path d="M23.92904,25.34304 C24.23704,25.30224 24.54424,25.24864 25.00824,25.17584 C23.99784,24.56784 23.17224,24.94064 22.05064,25.04064 C22.54184,25.33264 22.76584,25.71984 23.02024,25.21824 C23.28424,25.53744 23.61624,25.38464 23.92904,25.34304" id="Fill-66"></path>
                                            <path d="M26.66416,22.6508 C25.59696,22.9244 25.58256,22.9564 25.99616,24.1732 C26.05856,23.9636 26.11696,23.7692 26.19296,23.5148 C26.30896,23.7252 26.39216,23.8764 26.47616,24.0292 C26.54256,24.0252 26.60896,24.0204 26.67536,24.0164 C26.64176,23.7972 26.58096,23.578 26.58016,23.3588 C26.57856,23.1268 26.63296,22.8948 26.66416,22.6508" id="Fill-68"></path>
                                            <path d="M26.50168,20.38048 C26.60808,20.25248 26.69208,20.14928 26.74488,20.08608 C26.94648,20.25168 27.14808,20.41728 27.40968,20.63248 C27.48728,20.13968 27.54248,19.79728 27.61288,19.35648 C27.18728,19.54288 26.74648,19.73728 26.27288,19.94608 C26.37368,20.13808 26.43448,20.25408 26.50168,20.38048" id="Fill-70"></path>
                                            <path d="M25.62744,16.5172 C25.52664,17.5828 25.52664,17.5828 25.92504,18.242 C26.21224,17.0316 26.21224,17.0316 25.62744,16.5172" id="Fill-72"></path>
                                        </g>
                                    </g>
                                </g>
                            </g>
                        </g>
                    </g>
                </g>
            </g>
        </g>
    </g>
</svg>