<?xml version="1.0" encoding="UTF-8"?>
<svg width="113px" height="101px" viewBox="0 0 113 101" version="1.1" xmlns="http://www.w3.org/2000/svg" xmlns:xlink="http://www.w3.org/1999/xlink">
    <title>059BB648-3212-4271-A62D-530089B87CDD</title>
    <defs>
        <polygon id="path-1" points="0 99.2592593 110.948905 99.2592593 110.948905 0.678518519 0 0.678518519"></polygon>
    </defs>
    <g id="Final" stroke="none" stroke-width="1" fill="none" fill-rule="evenodd">
        <g id="0.1_Home" transform="translate(-614.000000, -2021.000000)">
            <g id="Group-19" transform="translate(236.000000, 1444.000000)">
                <g id="Group-16" transform="translate(154.000000, 0.000000)">
                    <g id="Group-12" transform="translate(145.000000, 487.000000)">
                        <g id="Group-9" transform="translate(20.000000, 90.000000)">
                            <g id="services/web_app" transform="translate(59.000000, 0.000000)">
                                <g id="Page-1" transform="translate(0.051095, 0.000000)">
                                    <polygon id="Fill-1" fill="#474F59" points="11.3708029 89.0874074 64.6554745 89.0874074 64.6554745 16.0311111 11.3708029 16.0311111"></polygon>
                                    <polygon id="Fill-2" fill="#CCCBCA" points="17.1313869 23.3792593 28.0189781 23.3792593 28.0189781 22.2222222 17.1313869 22.2222222"></polygon>
                                    <polygon id="Fill-3" fill="#CCCBCA" points="17.1313869 32.1844444 20.2029197 32.1844444 20.2029197 31.0274074 17.1313869 31.0274074"></polygon>
                                    <polygon id="Fill-4" fill="#CCCBCA" points="29.9167883 23.3792593 34.2459854 23.3792593 34.2459854 22.2222222 29.9167883 22.2222222"></polygon>
                                    <polygon id="Fill-5" fill="#CCCBCA" points="21.0014599 32.1844444 32.0759124 32.1844444 32.0759124 31.0274074 21.0014599 31.0274074"></polygon>
                                    <polygon id="Fill-6" fill="#CCCBCA" points="20.2036496 26.3822222 25.0854015 26.3822222 25.0854015 25.2288889 20.2036496 25.2288889"></polygon>
                                    <polygon id="Fill-7" fill="#CCCBCA" points="20.2036496 41.2111111 25.0854015 41.2111111 25.0854015 40.0555556 20.2036496 40.0555556"></polygon>
                                    <polygon id="Fill-8" fill="#CCCBCA" points="17.1313869 59.0444444 25.0854015 59.0444444 25.0854015 57.9044444 17.1313869 57.9044444"></polygon>
                                    <polygon id="Fill-9" fill="#CCCBCA" points="20.2029197 44.2148148 22.2153285 44.2148148 22.2153285 43.0748148 20.2029197 43.0748148"></polygon>
                                    <polygon id="Fill-10" fill="#CCCBCA" points="26.2357664 41.2111111 38.9956204 41.2111111 38.9956204 40.0555556 26.2357664 40.0555556"></polygon>
                                    <polygon id="Fill-11" fill="#CCCBCA" points="25.419708 50.2392593 29.859854 50.2392593 29.859854 49.0814815 25.419708 49.0814815"></polygon>
                                    <polygon id="Fill-12" fill="#CCCBCA" points="22.7978102 82.897037 27.2379562 82.897037 27.2379562 81.7407407 22.7978102 81.7407407"></polygon>
                                    <polygon id="Fill-13" fill="#CCCBCA" points="31.0284672 50.2392593 38.2372263 50.2392593 38.2372263 49.0814815 31.0284672 49.0814815"></polygon>
                                    <polygon id="Fill-14" fill="#CCCBCA" points="39.2868613 62.0466667 42.9664234 62.0466667 42.9664234 60.9066667 39.2868613 60.9066667"></polygon>
                                    <polygon id="Fill-15" fill="#CCCBCA" points="26.3729927 76.8725926 34.9912409 76.8725926 34.9912409 75.7325926 26.3729927 75.7325926"></polygon>
                                    <polygon id="Fill-16" fill="#CCCBCA" points="29.1613139 82.897037 39.2890511 82.897037 39.2890511 81.7407407 29.1613139 81.7407407"></polygon>
                                    <polygon id="Fill-17" fill="#CCCBCA" points="47.3678832 68.0681481 51.0481752 68.0681481 51.0481752 66.9288889 47.3678832 66.9288889"></polygon>
                                    <polygon id="Fill-18" fill="#CCCBCA" points="40.0291971 50.2392593 48.7058394 50.2392593 48.7058394 49.0814815 40.0291971 49.0814815"></polygon>
                                    <polygon id="Fill-19" fill="#CCCBCA" points="40.4423358 41.2111111 49.6182482 41.2111111 49.6182482 40.0555556 40.4423358 40.0555556"></polygon>
                                    <polygon id="Fill-20" fill="#CCCBCA" points="51.4817518 41.2111111 57.1021898 41.2111111 57.1021898 40.0555556 51.4817518 40.0555556"></polygon>
                                    <polygon id="Fill-21" fill="#CCCBCA" points="20.2029197 35.1888889 27.4839416 35.1888889 27.4839416 34.0496296 20.2029197 34.0496296"></polygon>
                                    <polygon id="Fill-22" fill="#CCCBCA" points="20.2029197 38.1925926 30.5357664 38.1925926 30.5357664 37.0518519 20.2029197 37.0518519"></polygon>
                                    <polygon id="Fill-23" fill="#CCCBCA" points="22.9635036 44.2148148 34.7985401 44.2148148 34.7985401 43.0748148 22.9635036 43.0748148"></polygon>
                                    <polygon id="Fill-24" fill="#CCCBCA" points="20.2036496 65.0659259 32.0386861 65.0659259 32.0386861 63.9103704 20.2036496 63.9103704"></polygon>
                                    <polygon id="Fill-25" fill="#CCCBCA" points="24.5416058 68.0681481 33.2036496 68.0681481 33.2036496 66.9288889 24.5416058 66.9288889"></polygon>
                                    <polygon id="Fill-26" fill="#CCCBCA" points="31.2744526 79.8933333 54.2905109 79.8933333 54.2905109 78.7385185 31.2744526 78.7385185"></polygon>
                                    <polygon id="Fill-27" fill="#CCCBCA" points="42.3737226 82.897037 47.4145985 82.897037 47.4145985 81.7407407 42.3737226 81.7407407"></polygon>
                                    <polygon id="Fill-28" fill="#CCCBCA" points="34.6029197 68.0681481 45.880292 68.0681481 45.880292 66.9288889 34.6029197 66.9288889"></polygon>
                                    <polygon id="Fill-29" fill="#CCCBCA" points="38.2642336 76.8725926 49.5474453 76.8725926 49.5474453 75.7325926 38.2642336 75.7325926"></polygon>
                                    <polygon id="Fill-30" fill="#CCCBCA" points="22.9635036 47.2244444 26.810219 47.2244444 26.810219 46.0807407 22.9635036 46.0807407"></polygon>
                                    <polygon id="Fill-31" fill="#CCCBCA" points="22.9635036 53.2422222 27.1452555 53.2422222 27.1452555 52.1022222 22.9635036 52.1022222"></polygon>
                                    <polygon id="Fill-32" fill="#CCCBCA" points="20.2029197 62.0466667 37.7948905 62.0466667 37.7948905 60.9066667 20.2029197 60.9066667"></polygon>
                                    <polygon id="Fill-33" fill="#CCCBCA" points="20.2029197 68.0681481 23.0138686 68.0681481 23.0138686 66.9288889 20.2029197 66.9288889"></polygon>
                                    <polygon id="Fill-34" fill="#CCCBCA" points="17.1313869 76.8725926 25.0189781 76.8725926 25.0189781 75.7325926 17.1313869 75.7325926"></polygon>
                                    <polygon id="Fill-35" fill="#CCCBCA" points="20.2029197 79.8933333 29.1861314 79.8933333 29.1861314 78.7377778 20.2029197 78.7377778"></polygon>
                                    <polygon id="Fill-36" fill="#CCCBCA" points="28.0189781 47.2244444 51.1350365 47.2244444 51.1350365 46.0807407 28.0189781 46.0807407"></polygon>
                                    <polygon id="Fill-37" fill="#CCCBCA" points="22.6591241 71.0718519 30.0532847 71.0718519 30.0532847 69.9340741 22.6591241 69.9340741"></polygon>
                                    <polygon id="Fill-38" fill="#CCCBCA" points="32.589781 71.0718519 53.0262774 71.0718519 53.0262774 69.9340741 32.589781 69.9340741"></polygon>
                                    <polygon id="Fill-39" fill="#CCCBCA" points="35.9474453 44.2148148 38.0649635 44.2148148 38.0649635 43.0748148 35.9474453 43.0748148"></polygon>
                                    <polygon id="Fill-40" fill="#CCCBCA" points="39.6583942 44.2148148 43.6284672 44.2148148 43.6284672 43.0748148 39.6583942 43.0748148"></polygon>
                                    <polygon id="Fill-41" fill="#CCCBCA" points="31.6350365 38.1925926 41.9664234 38.1925926 41.9664234 37.0518519 31.6350365 37.0518519"></polygon>
                                    <polygon id="Fill-42" fill="#CCCBCA" points="42.6788321 38.1925926 51.1613139 38.1925926 51.1613139 37.0518519 42.6788321 37.0518519"></polygon>
                                    <polygon id="Fill-43" fill="#CCCBCA" points="54.2927007 38.1925926 58.8912409 38.1925926 58.8912409 37.0518519 54.2927007 37.0518519"></polygon>
                                    <polygon id="Fill-44" fill="#CCCBCA" points="29.8656934 35.1888889 41.0576642 35.1888889 41.0576642 34.0496296 29.8656934 34.0496296"></polygon>
                                    <polygon id="Fill-45" fill="#CCCBCA" points="26.8883212 26.3822222 37.970073 26.3822222 37.970073 25.2288889 26.8883212 25.2288889"></polygon>
                                    <polygon id="Fill-46" fill="#232E38" points="11.3708029 16.0311111 64.6554745 16.0311111 64.6554745 10.1792593 11.3708029 10.1792593"></polygon>
                                    <g id="Group-134" transform="translate(0.000000, 0.062222)">
                                        <path d="M94.8730657,51.9582222 L94.8730657,93.0811852 C94.8730657,96.0226667 92.5227007,98.418963 89.6227007,98.418963 C86.7329197,98.418963 84.3818248,96.0226667 84.3818248,93.0811852 L84.3818248,43.013037 C84.3818248,39.6048889 81.6438686,36.8219259 78.2862044,36.8219259 C74.9278102,36.8219259 72.200073,39.6048889 72.200073,43.013037 L72.200073,55.1004444 L73.0358394,55.1004444 L73.0358394,43.013037 C73.0358394,40.073037 75.3949635,37.6782222 78.2862044,37.6782222 C81.1810949,37.6782222 83.5365693,40.073037 83.5365693,43.013037 L83.5365693,93.0811852 C83.5365693,96.4893333 86.2657664,99.258963 89.6227007,99.258963 C92.9818248,99.258963 95.7190511,96.4893333 95.7190511,93.0811852 L95.7190511,51.9582222 L94.8730657,51.9582222 Z" id="Fill-47" fill="#E6E5E5"></path>
                                        <path d="M94.8730657,91.1444444 L94.8730657,93.0807407 C94.8730657,96.022963 92.5227007,98.4185185 89.6227007,98.4185185 C88.6482482,98.4185185 87.7387591,98.1414815 86.9562774,97.6681481 C86.7015328,97.8407407 86.4380292,98.002963 86.180365,98.1718519 C87.1606569,98.8562963 88.3453285,99.2592593 89.6227007,99.2592593 C92.9818248,99.2592593 95.7190511,96.4896296 95.7190511,93.0807407 L95.7190511,90.3014815 C95.4416788,90.5874074 95.1562774,90.8651852 94.8730657,91.1444444" id="Fill-49" fill="#D9D8D7"></path>
                                        <mask id="mask-2" fill="white">
                                            <use xlink:href="#path-1"></use>
                                        </mask>
                                        <g id="Clip-52"></g>
                                        <polygon id="Fill-51" fill="#CCCBCA" mask="url(#mask-2)" points="71.5810219 58.9822222 73.6481752 58.9822222 73.6481752 55.1007407 71.5810219 55.1007407"></polygon>
                                        <polygon id="Fill-53" fill="#E6E5E5" mask="url(#mask-2)" points="94.2642336 46.1 96.3270073 46.1 96.3270073 43.5844444 94.2642336 43.5844444"></polygon>
                                        <polygon id="Fill-54" fill="#CCCBCA" mask="url(#mask-2)" points="93.6481752 51.9577778 96.9510949 51.9577778 96.9510949 46.0992593 93.6481752 46.0992593"></polygon>
                                        <polygon id="Fill-55" fill="#CCCBCA" mask="url(#mask-2)" points="34.2875912 89.0244444 110.948905 89.0244444 110.948905 59.0074074 34.2875912 59.0074074"></polygon>
                                        <polygon id="Fill-56" fill="#FFFFFF" mask="url(#mask-2)" points="36.8051095 65.4466667 40.6291971 65.4466667 40.6291971 61.5792593 36.8051095 61.5792593"></polygon>
                                        <polygon id="Fill-57" fill="#FFFFFF" mask="url(#mask-2)" points="99.5846715 70.5407407 103.406569 70.5407407 103.406569 66.6718519 99.5846715 66.6718519"></polygon>
                                        <polygon id="Fill-58" fill="#FFFFFF" mask="url(#mask-2)" points="94.5693431 70.5407407 98.3854015 70.5407407 98.3854015 66.6718519 94.5693431 66.6718519"></polygon>
                                        <polygon id="Fill-59" fill="#FFFFFF" mask="url(#mask-2)" points="89.5452555 70.5407407 93.3583942 70.5407407 93.3583942 66.6718519 89.5452555 66.6718519"></polygon>
                                        <polygon id="Fill-60" fill="#FFFFFF" mask="url(#mask-2)" points="84.5189781 70.5407407 88.3430657 70.5407407 88.3430657 66.6718519 84.5189781 66.6718519"></polygon>
                                        <polygon id="Fill-61" fill="#FFFFFF" mask="url(#mask-2)" points="79.4992701 70.5407407 83.3167883 70.5407407 83.3167883 66.6718519 79.4992701 66.6718519"></polygon>
                                        <polygon id="Fill-62" fill="#FFFFFF" mask="url(#mask-2)" points="74.479562 70.5407407 78.2948905 70.5407407 78.2948905 66.6718519 74.479562 66.6718519"></polygon>
                                        <polygon id="Fill-63" fill="#FFFFFF" mask="url(#mask-2)" points="69.4532847 70.5407407 73.2781022 70.5407407 73.2781022 66.6718519 69.4532847 66.6718519"></polygon>
                                        <polygon id="Fill-64" fill="#FFFFFF" mask="url(#mask-2)" points="64.429927 70.5407407 68.2540146 70.5407407 68.2540146 66.6718519 64.429927 66.6718519"></polygon>
                                        <polygon id="Fill-65" fill="#FFFFFF" mask="url(#mask-2)" points="59.4138686 70.5407407 63.2277372 70.5407407 63.2277372 66.6718519 59.4138686 66.6718519"></polygon>
                                        <polygon id="Fill-66" fill="#FFFFFF" mask="url(#mask-2)" points="54.3883212 70.5407407 58.2058394 70.5407407 58.2058394 66.6718519 54.3883212 66.6718519"></polygon>
                                        <polygon id="Fill-67" fill="#FFFFFF" mask="url(#mask-2)" points="49.3656934 70.5407407 53.1883212 70.5407407 53.1883212 66.6718519 49.3656934 66.6718519"></polygon>
                                        <polygon id="Fill-68" fill="#FFFFFF" mask="url(#mask-2)" points="44.3489051 70.5407407 48.1642336 70.5407407 48.1642336 66.6718519 44.3489051 66.6718519"></polygon>
                                        <polygon id="Fill-69" fill="#FFFFFF" mask="url(#mask-2)" points="45.5554745 75.6281481 49.3715328 75.6281481 49.3715328 71.7577778 45.5554745 71.7577778"></polygon>
                                        <polygon id="Fill-70" fill="#FFFFFF" mask="url(#mask-2)" points="43.1007299 80.7340741 46.9175182 80.7340741 46.9175182 76.8614815 43.1007299 76.8614815"></polygon>
                                        <polygon id="Fill-71" fill="#FFFFFF" mask="url(#mask-2)" points="48.1175182 80.7340741 51.9423358 80.7340741 51.9423358 76.8614815 48.1175182 76.8614815"></polygon>
                                        <polygon id="Fill-72" fill="#FFFFFF" mask="url(#mask-2)" points="53.1416058 80.7340741 56.9569343 80.7340741 56.9569343 76.8614815 53.1416058 76.8614815"></polygon>
                                        <polygon id="Fill-73" fill="#FFFFFF" mask="url(#mask-2)" points="58.1664234 80.7340741 61.9817518 80.7340741 61.9817518 76.8614815 58.1664234 76.8614815"></polygon>
                                        <polygon id="Fill-74" fill="#FFFFFF" mask="url(#mask-2)" points="63.1810219 80.7340741 67.0051095 80.7340741 67.0051095 76.8614815 63.1810219 76.8614815"></polygon>
                                        <polygon id="Fill-75" fill="#FFFFFF" mask="url(#mask-2)" points="68.2065693 80.7340741 72.019708 80.7340741 72.019708 76.8614815 68.2065693 76.8614815"></polygon>
                                        <polygon id="Fill-76" fill="#FFFFFF" mask="url(#mask-2)" points="73.2291971 80.7340741 77.0423358 80.7340741 77.0423358 76.8614815 73.2291971 76.8614815"></polygon>
                                        <polygon id="Fill-77" fill="#FFFFFF" mask="url(#mask-2)" points="78.2437956 80.7340741 82.0678832 80.7340741 82.0678832 76.8614815 78.2437956 76.8614815"></polygon>
                                        <polygon id="Fill-78" fill="#FFFFFF" mask="url(#mask-2)" points="83.2686131 80.7340741 87.0919708 80.7340741 87.0919708 76.8614815 83.2686131 76.8614815"></polygon>
                                        <polygon id="Fill-79" fill="#FFFFFF" mask="url(#mask-2)" points="88.2934307 80.7340741 92.1080292 80.7340741 92.1080292 76.8614815 88.2934307 76.8614815"></polygon>
                                        <polygon id="Fill-80" fill="#FFFFFF" mask="url(#mask-2)" points="93.310219 80.7340741 97.1313869 80.7340741 97.1313869 76.8614815 93.310219 76.8614815"></polygon>
                                        <polygon id="Fill-81" fill="#FFFFFF" mask="url(#mask-2)" points="98.3240876 80.7340741 108.423358 80.7340741 108.423358 76.8614815 98.3240876 76.8614815"></polygon>
                                        <polygon id="Fill-82" fill="#FFFFFF" mask="url(#mask-2)" points="50.5788321 75.6281481 54.3941606 75.6281481 54.3941606 71.7577778 50.5788321 71.7577778"></polygon>
                                        <polygon id="Fill-83" fill="#FFFFFF" mask="url(#mask-2)" points="55.5956204 75.6281481 59.420438 75.6281481 59.420438 71.7577778 55.5956204 71.7577778"></polygon>
                                        <polygon id="Fill-84" fill="#FFFFFF" mask="url(#mask-2)" points="60.6189781 75.6281481 64.4313869 75.6281481 64.4313869 71.7577778 60.6189781 71.7577778"></polygon>
                                        <polygon id="Fill-85" fill="#FFFFFF" mask="url(#mask-2)" points="65.6416058 75.6281481 69.4576642 75.6281481 69.4576642 71.7577778 65.6416058 71.7577778"></polygon>
                                        <polygon id="Fill-86" fill="#FFFFFF" mask="url(#mask-2)" points="70.6562044 75.6281481 74.479562 75.6281481 74.479562 71.7577778 70.6562044 71.7577778"></polygon>
                                        <polygon id="Fill-87" fill="#FFFFFF" mask="url(#mask-2)" points="75.679562 75.6281481 79.4941606 75.6281481 79.4941606 71.7577778 75.679562 71.7577778"></polygon>
                                        <polygon id="Fill-88" fill="#FFFFFF" mask="url(#mask-2)" points="80.7029197 75.6281481 84.5175182 75.6281481 84.5175182 71.7577778 80.7029197 71.7577778"></polygon>
                                        <polygon id="Fill-89" fill="#FFFFFF" mask="url(#mask-2)" points="85.7182482 75.6281481 89.540146 75.6281481 89.540146 71.7577778 85.7182482 71.7577778"></polygon>
                                        <polygon id="Fill-90" fill="#FFFFFF" mask="url(#mask-2)" points="90.7386861 75.6281481 94.5642336 75.6281481 94.5642336 71.7577778 90.7386861 71.7577778"></polygon>
                                        <polygon id="Fill-91" fill="#FFFFFF" mask="url(#mask-2)" points="95.7627737 75.6281481 99.5788321 75.6281481 99.5788321 71.7577778 95.7627737 71.7577778"></polygon>
                                        <polygon id="Fill-92" fill="#FFFFFF" mask="url(#mask-2)" points="100.779562 75.6281481 104.60073 75.6281481 104.60073 71.7577778 100.779562 71.7577778"></polygon>
                                        <polygon id="Fill-93" fill="#FFFFFF" mask="url(#mask-2)" points="41.8313869 65.4466667 45.6532847 65.4466667 45.6532847 61.5792593 41.8313869 61.5792593"></polygon>
                                        <polygon id="Fill-94" fill="#FFFFFF" mask="url(#mask-2)" points="46.8547445 65.4466667 50.670073 65.4466667 50.670073 61.5792593 46.8547445 61.5792593"></polygon>
                                        <polygon id="Fill-95" fill="#FFFFFF" mask="url(#mask-2)" points="51.879562 65.4466667 55.6941606 65.4466667 55.6941606 61.5792593 51.879562 61.5792593"></polygon>
                                        <polygon id="Fill-96" fill="#FFFFFF" mask="url(#mask-2)" points="56.8934307 65.4466667 60.7182482 65.4466667 60.7182482 61.5792593 56.8934307 61.5792593"></polygon>
                                        <polygon id="Fill-97" fill="#FFFFFF" mask="url(#mask-2)" points="61.9189781 65.4466667 65.7335766 65.4466667 65.7335766 61.5792593 61.9189781 61.5792593"></polygon>
                                        <polygon id="Fill-98" fill="#FFFFFF" mask="url(#mask-2)" points="66.9445255 65.4466667 70.7562044 65.4466667 70.7562044 61.5792593 66.9445255 61.5792593"></polygon>
                                        <polygon id="Fill-99" fill="#FFFFFF" mask="url(#mask-2)" points="71.959854 65.4466667 75.7810219 65.4466667 75.7810219 61.5792593 71.959854 61.5792593"></polygon>
                                        <polygon id="Fill-100" fill="#FFFFFF" mask="url(#mask-2)" points="76.9832117 65.4466667 80.8051095 65.4466667 80.8051095 61.5792593 76.9832117 61.5792593"></polygon>
                                        <polygon id="Fill-101" fill="#FFFFFF" mask="url(#mask-2)" points="82.0072993 65.4466667 85.8226277 65.4466667 85.8226277 61.5792593 82.0072993 61.5792593"></polygon>
                                        <polygon id="Fill-102" fill="#FFFFFF" mask="url(#mask-2)" points="87.0211679 65.4466667 90.8467153 65.4466667 90.8467153 61.5792593 87.0211679 61.5792593"></polygon>
                                        <polygon id="Fill-103" fill="#FFFFFF" mask="url(#mask-2)" points="92.0481752 65.4466667 95.8693431 65.4466667 95.8693431 61.5792593 92.0481752 61.5792593"></polygon>
                                        <polygon id="Fill-104" fill="#FFFFFF" mask="url(#mask-2)" points="97.0715328 65.4466667 100.887591 65.4466667 100.887591 61.5792593 97.0715328 61.5792593"></polygon>
                                        <polygon id="Fill-105" fill="#FFFFFF" mask="url(#mask-2)" points="102.086861 65.4466667 108.420438 65.4466667 108.420438 61.5792593 102.086861 61.5792593"></polygon>
                                        <polygon id="Fill-106" fill="#FFFFFF" mask="url(#mask-2)" points="36.8051095 70.5377778 43.1416058 70.5377778 43.1416058 66.6688889 36.8051095 66.6688889"></polygon>
                                        <polygon id="Fill-107" fill="#FFFFFF" mask="url(#mask-2)" points="36.8051095 75.6281481 44.3576642 75.6281481 44.3576642 71.7577778 36.8051095 71.7577778"></polygon>
                                        <polygon id="Fill-108" fill="#FFFFFF" mask="url(#mask-2)" points="36.8051095 80.7340741 41.8963504 80.7340741 41.8963504 76.8614815 36.8051095 76.8614815"></polygon>
                                        <polygon id="Fill-109" fill="#FFFFFF" mask="url(#mask-2)" points="36.8051095 86.4674074 40.6306569 86.4674074 40.6306569 81.9525926 36.8051095 81.9525926"></polygon>
                                        <polygon id="Fill-110" fill="#FFFFFF" mask="url(#mask-2)" points="41.8182482 86.4674074 45.6343066 86.4674074 45.6343066 81.9525926 41.8182482 81.9525926"></polygon>
                                        <polygon id="Fill-111" fill="#FFFFFF" mask="url(#mask-2)" points="46.8218978 86.4674074 50.6467153 86.4674074 50.6467153 81.9525926 46.8218978 81.9525926"></polygon>
                                        <polygon id="Fill-112" fill="#FFFFFF" mask="url(#mask-2)" points="51.8313869 86.4674074 56.9547445 86.4674074 56.9547445 81.9525926 51.8313869 81.9525926"></polygon>
                                        <polygon id="Fill-113" fill="#FFFFFF" mask="url(#mask-2)" points="58.1627737 86.4674074 82.0686131 86.4674074 82.0686131 81.9525926 58.1627737 81.9525926"></polygon>
                                        <polygon id="Fill-114" fill="#FFFFFF" mask="url(#mask-2)" points="83.2678832 86.4674074 88.3963504 86.4674074 88.3963504 81.9525926 83.2678832 81.9525926"></polygon>
                                        <polygon id="Fill-115" fill="#FFFFFF" mask="url(#mask-2)" points="89.5868613 86.4674074 93.4051095 86.4674074 93.4051095 81.9525926 89.5868613 81.9525926"></polygon>
                                        <polygon id="Fill-116" fill="#FFFFFF" mask="url(#mask-2)" points="94.6036496 86.4674074 98.4262774 86.4674074 98.4262774 84.3644444 94.6036496 84.3644444"></polygon>
                                        <polygon id="Fill-117" fill="#FFFFFF" mask="url(#mask-2)" points="99.6087591 86.4674074 103.423358 86.4674074 103.423358 84.4866667 99.6087591 84.4866667"></polygon>
                                        <polygon id="Fill-118" fill="#FFFFFF" mask="url(#mask-2)" points="99.6087591 83.9222222 103.423358 83.9222222 103.423358 81.9407407 99.6087591 81.9407407"></polygon>
                                        <polygon id="Fill-119" fill="#FFFFFF" mask="url(#mask-2)" points="104.606569 86.4674074 108.421898 86.4674074 108.421898 84.3644444 104.606569 84.3644444"></polygon>
                                        <polygon id="Fill-120" fill="#FFFFFF" mask="url(#mask-2)" points="105.800219 75.6279259 105.800219 70.5405185 104.608248 70.5405185 104.608248 66.6716296 108.423577 66.6716296 108.423577 75.6279259"></polygon>
                                        <g id="Group" mask="url(#mask-2)">
                                            <g transform="translate(70.802920, 8.148148)">
                                                <path d="M22.7418248,12.1636296 C22.7418248,18.5377037 17.6513139,23.7036296 11.3710219,23.7036296 C5.09,23.7036296 0.000218978102,18.5377037 0.000218978102,12.1636296 C0.000218978102,5.7902963 5.09,0.62437037 11.3710219,0.62437037 C17.6513139,0.62437037 22.7418248,5.7902963 22.7418248,12.1636296" id="Fill-130" stroke="none" fill="#8DC63F" fill-rule="evenodd"></path>
                                                <path d="M14.3136358,8.97233425 L17.4418944,12.3911377 C17.5436994,12.5023982 17.5436994,12.682787 17.4418944,12.7940475 L17.4418944,12.7940475 L14.3136358,16.2128509 C14.2118307,16.3241114 14.046772,16.3241114 13.9449669,16.2128509 C13.8431619,16.1015905 13.8431619,15.9212016 13.9449669,15.8099411 L13.9449669,15.8099411 L16.8886131,12.5928889 L13.9449669,9.3752441 C13.8431619,9.26398362 13.8431619,9.08359473 13.9449669,8.97233425 C14.046772,8.86107377 14.2118307,8.86107377 14.3136358,8.97233425 Z" id="Combined-Shape" stroke="#FFFFFF" stroke-width="0.5" fill="#FFFFFF" fill-rule="nonzero"></path>
                                                <path d="M5.55451167,8.97233425 L8.68277028,12.3911377 C8.78457536,12.5023982 8.78457536,12.682787 8.68277028,12.7940475 L8.68277028,12.7940475 L5.55451167,16.2128509 C5.45270659,16.3241114 5.28764794,16.3241114 5.18584286,16.2128509 C5.08403778,16.1015905 5.08403778,15.9212016 5.18584286,15.8099411 L5.18584286,15.8099411 L8.12948905,12.5928889 L5.18584286,9.3752441 C5.08403778,9.26398362 5.08403778,9.08359473 5.18584286,8.97233425 C5.28764794,8.86107377 5.45270659,8.86107377 5.55451167,8.97233425 Z" id="Combined-Shape" stroke="#FFFFFF" stroke-width="0.5" fill="#FFFFFF" fill-rule="nonzero" transform="translate(6.934307, 12.592593) scale(-1, 1) translate(-6.934307, -12.592593) "></path>
                                                <line x1="13.1386861" y1="7.34518519" x2="9.8540146" y2="18.0859259" id="Line" stroke="#FFFFFF" stroke-width="0.8" fill="none" stroke-linecap="round"></line>
                                            </g>
                                        </g>
                                    </g>
                                </g>
                            </g>
                        </g>
                    </g>
                </g>
            </g>
        </g>
    </g>
</svg>