<?xml version="1.0" encoding="UTF-8"?>
<svg width="130px" height="90px" viewBox="0 0 130 90" version="1.1" xmlns="http://www.w3.org/2000/svg" xmlns:xlink="http://www.w3.org/1999/xlink">
    <title>D22E82B9-080F-4446-AB49-9C2B3703FB24</title>
    <defs>
        <polygon id="path-1" points="0 88.2178218 129.689444 88.2178218 129.689444 0.0582237624 0 0.0582237624"></polygon>
    </defs>
    <g id="Final" stroke="none" stroke-width="1" fill="none" fill-rule="evenodd">
        <g id="0.1_Home" transform="translate(-750.000000, -1713.000000)">
            <g id="Group-19" transform="translate(236.000000, 1444.000000)">
                <g id="Group-16" transform="translate(154.000000, 0.000000)">
                    <g id="Group-41" transform="translate(285.000000, 169.000000)">
                        <g id="Group-10" transform="translate(30.000000, 100.000000)">
                            <g id="Page-1" transform="translate(45.000000, 0.000000)">
                                <g id="Group-7" transform="translate(75.833333, 3.470136)" stroke="#353F49" stroke-width="1.8">
                                    <line x1="49.3446597" y1="0.0555772277" x2="48.4418819" y2="0.0555772277" id="Stroke-1"></line>
                                    <line x1="46.6997917" y1="0.0555772277" x2="2.27770833" y2="0.0555772277" id="Stroke-3" stroke-dasharray="1.736999952793121,1.736999952793121"></line>
                                    <line x1="1.40706944" y1="0.0555772277" x2="0.504291667" y2="0.0555772277" id="Stroke-5"></line>
                                </g>
                                <line x1="125.177993" y1="73.8264956" x2="124.275215" y2="73.8264956" id="Stroke-8" stroke="#353F49" stroke-width="1.8"></line>
                                <line x1="122.533125" y1="73.8264956" x2="78.1110417" y2="73.8264956" id="Stroke-9" stroke="#353F49" stroke-width="1.8" stroke-dasharray="1.736999952793121,1.736999952793121"></line>
                                <line x1="77.2404028" y1="73.8264956" x2="76.337625" y2="73.8264956" id="Stroke-10" stroke="#353F49" stroke-width="1.8"></line>
                                <line x1="74.5320694" y1="72.0621392" x2="74.5320694" y2="71.179961" id="Stroke-11" stroke="#353F49" stroke-width="1.8"></line>
                                <line x1="74.5320694" y1="69.4232795" x2="74.5320694" y2="7.05063297" id="Stroke-12" stroke="#353F49" stroke-width="1.8" stroke-dasharray="1.792799985408783,1.792799985408783"></line>
                                <line x1="74.5320694" y1="6.17224812" x2="74.5320694" y2="5.2900699" id="Stroke-13" stroke="#353F49" stroke-width="1.8"></line>
                                <g id="Group-23" transform="translate(0.000000, 0.823602)">
                                    <path d="M126.983549,71.2385376 L126.983549,70.3563594 L126.983549,71.2385376 Z" id="Stroke-14" stroke="#353F49" stroke-width="1.8"></path>
                                    <line x1="126.983549" y1="68.5996779" x2="126.983549" y2="6.22703139" id="Stroke-16" stroke="#353F49" stroke-width="1.8" stroke-dasharray="1.792799985408783,1.792799985408783"></line>
                                    <line x1="126.983549" y1="5.34864653" x2="126.983549" y2="4.46646832" id="Stroke-18" stroke="#353F49" stroke-width="1.8"></line>
                                    <mask id="mask-2" fill="white">
                                        <use xlink:href="#path-1"></use>
                                    </mask>
                                    <g id="Clip-21"></g>
                                    <polygon id="Stroke-20" stroke="#353F49" stroke-width="1.8" mask="url(#mask-2)" points="72.726875 4.46911485 76.3379861 4.46911485 76.3379861 0.94040198 72.726875 0.94040198"></polygon>
                                    <polygon id="Stroke-22" stroke="#353F49" stroke-width="1.8" mask="url(#mask-2)" points="125.175556 4.46911485 128.786667 4.46911485 128.786667 0.94040198 125.175556 0.94040198"></polygon>
                                </g>
                                <polygon id="Stroke-24" stroke="#353F49" stroke-width="1.8" points="72.726875 75.5899699 76.3379861 75.5899699 76.3379861 72.061257 72.726875 72.061257"></polygon>
                                <polygon id="Stroke-25" stroke="#353F49" stroke-width="1.8" points="125.175556 75.5899699 128.786667 75.5899699 128.786667 72.061257 125.175556 72.061257"></polygon>
                                <polygon id="Fill-27" fill="#353F49" points="0 74.7077917 54.2551389 74.7077917 54.2551389 8.32917386 0 8.32917386"></polygon>
                                <polygon id="Fill-28" fill="#656A73" points="5.86986111 15.1872273 8.99347222 15.1872273 8.99347222 13.9715857 5.86986111 13.9715857"></polygon>
                                <polygon id="Fill-29" fill="#656A73" points="9.80236111 15.1872273 21.0852778 15.1872273 21.0852778 13.9715857 9.80236111 13.9715857"></polygon>
                                <polygon id="Fill-30" fill="#656A73" points="8.99347222 24.7800333 13.966875 24.7800333 13.966875 23.5635095 8.99347222 23.5635095"></polygon>
                                <polygon id="Fill-31" fill="#656A73" points="5.86895833 43.7248105 13.966875 43.7248105 13.966875 42.5082867 5.86895833 42.5082867"></polygon>
                                <polygon id="Fill-32" fill="#656A73" points="8.99347222 27.9796937 11.0427778 27.9796937 11.0427778 26.7640521 8.99347222 26.7640521"></polygon>
                                <polygon id="Fill-33" fill="#656A73" points="15.1386806 24.7800333 28.12875 24.7800333 28.12875 23.5635095 15.1386806 23.5635095"></polygon>
                                <polygon id="Fill-34" fill="#656A73" points="14.308125 34.3728392 26.901875 34.3728392 26.901875 33.1554333 14.308125 33.1554333"></polygon>
                                <polygon id="Fill-35" fill="#656A73" points="11.6368056 69.0600867 16.1552083 69.0600867 16.1552083 67.848856 11.6368056 67.848856"></polygon>
                                <polygon id="Fill-36" fill="#656A73" points="28.4257639 46.9227065 33.085 46.9227065 33.085 45.7026541 28.4257639 45.7026541"></polygon>
                                <polygon id="Fill-37" fill="#656A73" points="15.2740972 62.6739986 24.0527083 62.6739986 24.0527083 61.4521818 15.2740972 61.4521818"></polygon>
                                <polygon id="Fill-38" fill="#656A73" points="18.11875 69.0600867 28.429375 69.0600867 28.429375 67.848856 18.11875 67.848856"></polygon>
                                <polygon id="Fill-39" fill="#656A73" points="36.6563889 53.3149699 40.4065278 53.3149699 40.4065278 52.0966818 36.6563889 52.0966818"></polygon>
                                <polygon id="Fill-40" fill="#656A73" points="29.1795833 34.3728392 38.52875 34.3728392 38.52875 33.1554333 29.1795833 33.1554333"></polygon>
                                <polygon id="Fill-41" fill="#656A73" points="29.6002778 24.7800333 38.9458333 24.7800333 38.9458333 23.5635095 29.6002778 23.5635095"></polygon>
                                <polygon id="Fill-42" fill="#656A73" points="40.8488889 24.7800333 46.5670833 24.7800333 46.5670833 23.5635095 40.8488889 23.5635095"></polygon>
                                <polygon id="Fill-43" fill="#656A73" points="8.99347222 18.3886521 16.4115972 18.3886521 16.4115972 17.1730105 8.99347222 17.1730105"></polygon>
                                <polygon id="Fill-44" fill="#656A73" points="8.99347222 21.5874303 19.5144444 21.5874303 19.5144444 20.3673778 8.99347222 20.3673778"></polygon>
                                <polygon id="Fill-45" fill="#656A73" points="11.8020139 27.9796937 23.8613194 27.9796937 23.8613194 26.7640521 11.8020139 26.7640521"></polygon>
                                <polygon id="Fill-46" fill="#656A73" points="8.99256944 50.1170739 21.0473611 50.1170739 21.0473611 48.9058432 8.99256944 48.9058432"></polygon>
                                <polygon id="Fill-47" fill="#656A73" points="8.99347222 53.3149699 22.2318056 53.3149699 22.2318056 52.0966818 8.99347222 52.0966818"></polygon>
                                <polygon id="Fill-48" fill="#656A73" points="20.2727778 65.8701303 43.7034722 65.8701303 43.7034722 64.6518422 20.2727778 64.6518422"></polygon>
                                <polygon id="Fill-49" fill="#656A73" points="31.5701389 69.0600867 36.7024306 69.0600867 36.7024306 67.848856 31.5701389 67.848856"></polygon>
                                <polygon id="Fill-50" fill="#656A73" points="23.6545833 53.3149699 35.1361111 53.3149699 35.1361111 52.0966818 23.6545833 52.0966818"></polygon>
                                <polygon id="Fill-51" fill="#656A73" points="27.3902778 62.6739986 38.8709028 62.6739986 38.8709028 61.4521818 27.3902778 61.4521818"></polygon>
                                <polygon id="Fill-52" fill="#656A73" points="11.8020139 31.1767075 15.7209722 31.1767075 15.7209722 29.9610659 11.8020139 29.9610659"></polygon>
                                <polygon id="Fill-53" fill="#656A73" points="11.8011111 37.5698531 16.0667361 37.5698531 16.0667361 36.351565 11.8011111 36.351565"></polygon>
                                <polygon id="Fill-54" fill="#656A73" points="8.99347222 46.9227065 26.901875 46.9227065 26.901875 45.7026541 8.99347222 45.7026541"></polygon>
                                <polygon id="Fill-55" fill="#656A73" points="5.86895833 62.6739986 13.8973611 62.6739986 13.8973611 61.4521818 5.86895833 61.4521818"></polygon>
                                <polygon id="Fill-56" fill="#656A73" points="8.99347222 65.8701303 18.1404167 65.8701303 18.1404167 64.6500778 8.99347222 64.6500778"></polygon>
                                <polygon id="Fill-57" fill="#656A73" points="16.9532639 31.1767075 40.4895833 31.1767075 40.4895833 29.9610659 16.9532639 29.9610659"></polygon>
                                <polygon id="Fill-58" fill="#656A73" points="11.496875 56.5163947 19.0233333 56.5163947 19.0233333 55.2910491 11.496875 55.2910491"></polygon>
                                <polygon id="Fill-59" fill="#656A73" points="21.6034722 56.5163947 42.4134028 56.5163947 42.4134028 55.2910491 21.6034722 55.2910491"></polygon>
                                <polygon id="Fill-60" fill="#656A73" points="26.3403472 27.9796937 34.2730556 27.9796937 34.2730556 26.7640521 26.3403472 26.7640521"></polygon>
                                <polygon id="Fill-61" fill="#656A73" points="20.6347917 21.5874303 31.1521528 21.5874303 31.1521528 20.3673778 20.6347917 20.3673778"></polygon>
                                <polygon id="Fill-62" fill="#656A73" points="31.8761806 21.5874303 40.5211806 21.5874303 40.5211806 20.3673778 31.8761806 20.3673778"></polygon>
                                <polygon id="Fill-63" fill="#656A73" points="43.7061806 21.5874303 48.3897917 21.5874303 48.3897917 20.3673778 43.7061806 20.3673778"></polygon>
                                <polygon id="Fill-64" fill="#656A73" points="18.8364583 18.3886521 30.225 18.3886521 30.225 17.1730105 18.8364583 17.1730105"></polygon>
                                <polygon id="Fill-65" fill="#232E38" points="0 8.33005604 54.2551389 8.33005604 54.2551389 2.64706396 0 2.64706396"></polygon>
                                <polygon id="Fill-66" fill="#F2F2F2" points="27.1284722 89.0414234 100.756319 89.0414234 100.756319 38.7316818 27.1284722 38.7316818"></polygon>
                                <polygon id="Fill-67" fill="#232E38" points="27.1275694 38.7307996 100.756319 38.7307996 100.756319 33.0486897 27.1275694 33.0486897"></polygon>
                                <polygon id="Fill-68" fill="#8DC63F" points="31.0022917 61.4512996 50.3768056 61.4512996 50.3768056 42.5188729 31.0022917 42.5188729"></polygon>
                                <polygon id="Fill-69" fill="#FFFFFF" points="41.1905903 45.532129 40.1894097 45.532129 39.8951042 46.9533181 41.4839931 46.9533181"></polygon>
                                <polygon id="Fill-70" fill="#FFFFFF" points="37.821875 46.148948 36.9543056 46.6403213 37.4273611 48.0182837 38.8040972 47.2446134"></polygon>
                                <polygon id="Fill-71" fill="#FFFFFF" points="35.2211528 48.3319862 34.7174028 49.1832882 35.8341389 50.1448625 36.6312917 48.8004229"></polygon>
                                <polygon id="Fill-72" fill="#FFFFFF" points="34.0842847 51.4989178 34.0842847 52.4728426 35.5440764 52.7657257 35.5440764 51.207799"></polygon>
                                <polygon id="Fill-73" fill="#FFFFFF" points="34.7173125 54.7881193 35.2210625 55.6358926 36.6321042 55.1753955 35.8340486 53.8230163"></polygon>
                                <polygon id="Fill-74" fill="#FFFFFF" points="36.9539444 57.3278222 37.8215139 57.8227242 38.8046389 56.727941 37.4279028 55.950742"></polygon>
                                <polygon id="Fill-75" fill="#FFFFFF" points="40.1899514 58.4408664 41.1902292 58.4408664 41.4845347 57.0161486 39.8956458 57.0161486"></polygon>
                                <polygon id="Fill-76" fill="#FFFFFF" points="43.5594792 57.8223713 44.4288542 57.3274693 43.9485764 55.9512713 42.5790625 56.7284703"></polygon>
                                <polygon id="Fill-77" fill="#FFFFFF" points="46.1598403 55.6358044 46.6608819 54.7880311 45.5441458 53.8229281 44.7515069 55.1761895"></polygon>
                                <polygon id="Fill-78" fill="#FFFFFF" points="47.2944514 52.4724015 47.2944514 51.4984767 45.8382708 51.2073579 45.8382708 52.7652847"></polygon>
                                <polygon id="Fill-79" fill="#FFFFFF" points="46.6605208 49.1832 46.1594792 48.331898 44.7511458 48.8003347 45.5446875 50.1430099"></polygon>
                                <polygon id="Fill-80" fill="#FFFFFF" points="44.4287639 46.6400566 43.5593889 46.1504477 42.5789722 47.2452309 43.9484861 48.018019"></polygon>
                                <g id="Group-100" transform="translate(30.694444, 42.285978)">
                                    <path d="M9.99627778,11.5373032 C11.0326667,11.5373032 11.8758611,10.7133487 11.8758611,9.70237248 C11.8758611,8.68610317 11.0326667,7.86567743 9.99627778,7.86567743 C8.95898611,7.86567743 8.11579167,8.68610317 8.11579167,9.70237248 C8.11579167,10.7133487 8.95898611,11.5373032 9.99627778,11.5373032 Z M9.99627778,4.61220416 C12.8698194,4.61220416 15.2035,6.88998832 15.2035,9.70237248 C15.2035,12.5112279 12.8698194,14.7890121 9.99627778,14.7890121 C7.11822222,14.7890121 4.78725,12.5112279 4.78725,9.70237248 C4.78725,6.88998832 7.11822222,4.61220416 9.99627778,4.61220416 Z" id="Fill-81" fill="#FFFFFF"></path>
                                    <polygon id="Fill-83" fill="#8DC63F" points="0.307847222 32.4218139 19.6823611 32.4218139 19.6823611 22.9525129 0.307847222 22.9525129"></polygon>
                                    <polygon id="Fill-85" fill="#8DC63F" points="23.5606944 32.4218139 42.9352083 32.4218139 42.9352083 22.9525129 23.5606944 22.9525129"></polygon>
                                    <polygon id="Fill-86" fill="#8DC63F" points="46.808125 32.4218139 66.1871528 32.4218139 66.1871528 22.9525129 46.808125 22.9525129"></polygon>
                                    <polygon id="Fill-87" fill="#CCCBCA" points="23.5597917 4.2847396 66.1871528 4.2847396 66.1871528 2.93765347 23.5597917 2.93765347"></polygon>
                                    <polygon id="Fill-88" fill="#353F49" points="23.5597917 1.58527426 66.1871528 1.58527426 66.1871528 0.23289505 23.5597917 0.23289505"></polygon>
                                    <polygon id="Fill-89" fill="#CCCBCA" points="23.5597917 6.99567327 66.1871528 6.99567327 66.1871528 5.64505842 23.5597917 5.64505842"></polygon>
                                    <polygon id="Fill-90" fill="#CCCBCA" points="23.5597917 9.70219604 44.8725694 9.70219604 44.8725694 8.34805248 23.5597917 8.34805248"></polygon>
                                    <polygon id="Fill-91" fill="#CCCBCA" points="0.307847222 37.5578554 19.6823611 37.5578554 19.6823611 36.209005 0.307847222 36.209005"></polygon>
                                    <polygon id="Fill-92" fill="#CCCBCA" points="0.307847222 40.263496 19.6823611 40.263496 19.6823611 38.9093525 0.307847222 38.9093525"></polygon>
                                    <polygon id="Fill-93" fill="#CCCBCA" points="0.307847222 42.9717832 9.99645833 42.9717832 9.99645833 41.6211683 0.307847222 41.6211683"></polygon>
                                    <polygon id="Fill-94" fill="#CCCBCA" points="23.5606944 37.5578554 42.9352083 37.5578554 42.9352083 36.209005 23.5606944 36.209005"></polygon>
                                    <polygon id="Fill-95" fill="#CCCBCA" points="23.5606944 40.263496 42.9352083 40.263496 42.9352083 38.9093525 23.5606944 38.9093525"></polygon>
                                    <polygon id="Fill-96" fill="#CCCBCA" points="23.5606944 42.9717832 33.2465972 42.9717832 33.2465972 41.6211683 23.5606944 41.6211683"></polygon>
                                    <polygon id="Fill-97" fill="#CCCBCA" points="46.808125 37.5578554 66.1871528 37.5578554 66.1871528 36.209005 46.808125 36.209005"></polygon>
                                    <polygon id="Fill-98" fill="#CCCBCA" points="46.808125 40.263496 66.1871528 40.263496 66.1871528 38.9093525 46.808125 38.9093525"></polygon>
                                    <polygon id="Fill-99" fill="#CCCBCA" points="46.808125 42.9717832 56.4985417 42.9717832 56.4985417 41.6211683 46.808125 41.6211683"></polygon>
                                </g>
                            </g>
                        </g>
                    </g>
                </g>
            </g>
        </g>
    </g>
</svg>